<?xml version="1.0" standalone="no"?>
<!DOCTYPE svg PUBLIC "-//W3C//DTD SVG 20010904//EN"
 "http://www.w3.org/TR/2001/REC-SVG-20010904/DTD/svg10.dtd">
<svg version="1.0" xmlns="http://www.w3.org/2000/svg"
 width="1024.000000pt" height="1024.000000pt" viewBox="0 0 1024.000000 1024.000000"
 preserveAspectRatio="xMidYMid meet">

<g transform="translate(0.000000,1024.000000) scale(0.100000,-0.100000)"
fill="#23a44d" stroke="none">
<path d="M4994 9991 c-257 -70 -450 -280 -584 -637 -5 -12 -29 -29 -61 -42
-298 -117 -507 -213 -612 -279 -218 -136 -440 -364 -566 -581 -89 -154 -133
-266 -169 -432 -22 -99 -3 -92 -183 -62 -70 12 -149 22 -178 22 -47 0 -52 -2
-62 -27 -78 -207 -36 -698 92 -1062 16 -46 28 -85 26 -87 -7 -8 -137 68 -178
104 -24 21 -73 57 -108 79 -63 40 -65 41 -104 27 -56 -20 -91 -17 -145 10 -57
29 -80 53 -92 97 -22 74 23 138 134 194 41 20 57 23 110 18 61 -5 62 -5 94 31
38 43 41 82 11 120 -33 42 -75 59 -134 53 l-51 -5 -12 51 c-16 67 -45 108
-105 147 -97 63 -214 50 -305 -34 -83 -76 -109 -185 -73 -303 22 -76 88 -185
120 -203 16 -8 21 -20 21 -54 0 -24 7 -67 17 -95 9 -28 14 -53 12 -54 -2 -2
-49 -38 -104 -80 -125 -95 -205 -170 -205 -192 0 -9 51 -67 113 -129 137 -135
174 -198 224 -388 34 -130 95 -282 185 -461 l49 -98 -12 -62 c-15 -79 -15
-273 0 -355 11 -58 10 -65 -9 -92 -113 -159 -136 -479 -54 -740 13 -41 24 -80
24 -86 0 -6 -39 -35 -87 -64 -129 -78 -249 -202 -301 -311 -58 -120 -75 -194
-75 -324 0 -83 5 -129 22 -190 69 -246 255 -437 500 -510 47 -15 61 -23 57
-35 -39 -124 -47 -239 -21 -326 33 -112 129 -207 244 -241 70 -21 188 -21 260
1 30 9 56 16 57 16 1 0 4 -75 7 -167 5 -187 26 -291 77 -397 31 -64 84 -129
128 -158 25 -16 26 -22 27 -105 1 -99 15 -139 65 -197 50 -56 119 -87 210 -93
65 -5 84 -2 139 20 l64 26 28 -30 c60 -64 176 -91 292 -66 37 7 69 11 71 8 2
-3 9 -32 17 -64 25 -114 122 -226 228 -264 44 -15 51 -23 79 -78 90 -184 323
-385 538 -466 143 -53 260 -72 414 -65 173 7 275 32 415 100 119 58 221 131
299 211 69 71 152 183 176 237 17 39 27 48 65 61 120 41 211 148 235 279 6 28
12 53 13 55 2 1 37 -4 78 -13 120 -25 235 2 290 67 l25 31 45 -23 c37 -20 58
-24 139 -24 88 0 99 2 150 31 102 57 159 168 147 284 l-6 56 57 51 c121 106
190 339 180 607 -1 53 -3 96 -3 96 0 0 25 -10 55 -21 40 -16 79 -22 145 -23
82 -1 96 2 157 31 207 98 274 290 193 549 -6 19 1 24 70 47 89 30 217 103 286
165 89 80 174 230 203 359 23 103 21 260 -4 352 -53 191 -173 341 -373 465
-43 27 -76 54 -74 61 57 147 82 299 74 444 -8 134 -27 210 -78 321 -41 88 -41
89 -30 153 15 85 13 256 -3 341 l-13 69 57 121 c107 226 144 321 185 474 44
166 131 299 259 397 91 70 92 77 15 149 -59 55 -173 147 -233 189 -22 15 -24
21 -15 44 5 15 14 58 19 96 6 52 14 73 33 91 65 60 117 189 118 292 1 131 -65
227 -180 261 -149 43 -294 -42 -317 -189 l-6 -33 -70 0 c-68 0 -70 -1 -104
-37 -45 -50 -46 -93 -4 -138 30 -32 32 -33 91 -26 75 7 126 -12 193 -74 51
-47 69 -93 56 -142 -12 -41 -36 -65 -92 -94 -53 -27 -78 -29 -140 -13 -41 11
-46 10 -108 -26 -36 -21 -85 -55 -110 -75 -48 -39 -169 -115 -174 -109 -2 2
16 63 39 134 49 148 90 336 106 487 22 201 -5 510 -48 553 -18 18 -61 15 -238
-21 -66 -13 -125 -24 -131 -24 -6 0 -19 37 -28 83 -89 413 -379 804 -779 1047
-81 49 -166 87 -431 195 l-198 80 -17 55 c-48 153 -194 361 -325 466 -164 130
-343 178 -502 135z m269 -229 c36 -16 83 -47 106 -67 55 -50 139 -163 191
-258 l43 -79 -39 20 c-137 68 -372 109 -528 92 -143 -17 -320 -66 -363 -102
-27 -22 -24 1 8 63 155 309 369 431 582 331z m117 -517 c167 -33 530 -170 530
-200 0 -7 -11 -37 -24 -66 -12 -30 -45 -115 -71 -189 -54 -154 -64 -177 -74
-162 -8 14 -142 82 -161 82 -9 0 -42 20 -75 45 -131 99 -255 139 -410 133 -83
-4 -114 -10 -183 -37 -46 -18 -113 -53 -150 -78 -36 -25 -83 -51 -105 -59 -22
-8 -67 -32 -100 -54 -33 -22 -62 -39 -64 -37 -2 3 -30 77 -62 165 -33 88 -69
182 -81 208 -25 57 -24 58 70 101 165 75 359 136 510 159 109 17 337 11 450
-11z m-1156 -267 c8 -18 40 -100 69 -183 30 -82 64 -174 76 -204 12 -29 20
-55 19 -56 -2 -2 -28 -8 -57 -14 l-55 -12 -71 71 c-39 38 -77 70 -86 70 -8 0
-33 -18 -54 -41 -38 -38 -39 -41 -20 -51 11 -7 40 -30 64 -53 l44 -42 -68 -40
-69 -41 -21 26 c-64 81 -255 349 -255 359 0 13 124 89 232 144 46 23 218 96
235 99 1 0 9 -15 17 -32z m1891 2 c151 -60 385 -188 385 -210 0 -20 -268 -383
-279 -378 -33 13 -121 64 -121 70 0 14 71 87 91 93 10 4 19 11 19 18 0 15 -71
87 -86 87 -7 0 -44 -34 -82 -76 l-70 -76 -56 13 c-31 7 -56 13 -56 14 0 2 16
47 36 101 20 55 53 149 74 209 46 135 58 165 64 165 3 0 39 -13 81 -30z m-902
-225 c134 -28 222 -86 336 -220 81 -95 115 -112 242 -120 187 -13 363 -98 458
-222 44 -57 124 -214 114 -223 -4 -4 -33 -10 -64 -14 l-56 -6 -28 66 c-32 75
-114 171 -180 209 -122 72 -254 87 -385 45 -41 -13 -79 -24 -84 -25 -4 0 -16
30 -25 67 -43 170 -221 315 -401 326 -63 3 -86 0 -143 -22 -83 -31 -142 -71
-197 -133 -50 -57 -72 -99 -95 -178 -10 -33 -18 -61 -19 -62 -1 -1 -32 9 -70
23 -95 34 -166 40 -244 20 -176 -46 -292 -148 -351 -307 -9 -25 -13 -26 -63
-22 -82 7 -81 5 -58 65 29 74 103 181 164 234 73 65 193 121 306 144 52 11
110 20 128 20 54 0 111 37 222 145 107 104 161 142 240 170 100 36 157 41 253
20z m-1503 -167 c33 -46 91 -126 130 -179 38 -53 70 -101 70 -106 0 -6 -7 -16
-15 -23 -13 -11 -49 4 -221 91 -113 57 -208 107 -210 111 -5 8 165 188 177
188 5 0 36 -37 69 -82z m2974 6 c42 -42 81 -85 87 -95 9 -17 -12 -30 -203
-125 -196 -97 -213 -104 -225 -88 -15 20 -13 24 72 139 52 72 132 182 160 223
9 12 20 22 24 22 5 0 43 -34 85 -76z m-1439 -109 c126 -60 195 -160 195 -282
0 -45 -7 -67 -42 -131 l-43 -77 -6 55 c-4 30 -10 64 -14 75 -25 64 -104 126
-177 139 -119 21 -235 -66 -254 -191 -8 -51 -18 -54 -40 -10 -10 17 -26 44
-37 59 -17 22 -19 37 -15 92 11 126 78 218 203 277 85 40 138 38 230 -6z
m-1654 -211 c112 -52 208 -99 214 -105 6 -6 1 -26 -15 -56 l-24 -46 -13 32
c-21 50 -48 41 -83 -29 -17 -33 -38 -89 -46 -123 -9 -34 -18 -65 -20 -68 -2
-3 -36 0 -76 7 -40 7 -130 16 -200 20 l-128 7 6 26 c14 62 37 141 61 206 27
74 104 225 114 225 4 0 98 -43 210 -96z m3293 63 c74 -129 128 -269 150 -388
l6 -36 -127 -7 c-71 -3 -159 -13 -198 -20 -38 -8 -70 -14 -71 -13 0 1 -8 30
-17 64 -19 68 -62 166 -81 182 -7 6 -22 8 -34 4 -17 -4 -22 -13 -22 -37 0 -30
-1 -30 -31 22 -18 31 -28 57 -23 62 5 5 72 38 149 73 77 35 167 78 200 95 33
17 65 31 70 31 6 1 18 -14 29 -32z m-2296 -183 c20 -8 52 -25 70 -37 35 -23
132 -150 132 -173 0 -14 -87 -77 -100 -72 -4 2 -26 27 -49 56 -61 77 -112 107
-180 106 -93 -1 -170 -53 -217 -146 l-24 -47 -36 24 c-20 14 -43 25 -51 25
-17 0 -12 23 21 89 78 160 278 241 434 175z m1257 15 c112 -21 196 -82 249
-183 35 -65 34 -90 -4 -106 -16 -7 -35 -19 -41 -26 -10 -12 -18 -4 -45 44 -39
68 -86 109 -152 128 -64 20 -91 18 -151 -12 -40 -20 -65 -43 -99 -90 l-45 -63
-28 24 c-16 13 -38 26 -49 30 -26 8 -25 19 6 74 53 93 137 158 231 180 53 12
62 12 128 0z m-680 -35 c30 -14 65 -64 65 -93 0 -15 -11 -14 -52 3 -40 17 -84
14 -127 -9 -27 -14 -31 -14 -31 -1 0 29 32 83 59 99 33 21 45 21 86 1z m-620
-286 c30 -32 55 -64 55 -70 0 -6 -26 -38 -57 -70 -32 -32 -75 -86 -96 -120
l-38 -63 -97 0 c-53 0 -105 -4 -114 -9 -14 -6 -20 -2 -27 15 -12 30 -86 102
-127 122 -81 41 -176 28 -254 -34 -110 -89 -116 -289 -11 -397 74 -75 248
-222 264 -222 12 0 67 62 67 76 0 6 -30 39 -66 73 l-66 62 27 35 c33 44 118
108 175 133 106 45 191 35 252 -31 55 -60 64 -88 49 -164 -11 -55 -11 -74 4
-140 9 -41 14 -78 11 -81 -3 -3 -24 -7 -48 -10 l-43 -5 -17 49 c-10 26 -38 73
-63 103 -25 30 -45 60 -45 67 0 7 17 21 38 30 26 13 40 28 49 53 15 46 -2 60
-75 60 -50 0 -58 -3 -92 -38 -71 -71 -65 -147 20 -247 80 -93 80 -91 7 -104
-34 -6 -96 -14 -137 -17 l-75 -6 -123 100 c-119 97 -148 124 -197 187 -62 80
-96 175 -97 272 -1 87 7 124 43 194 47 95 120 154 221 179 116 30 329 -76 419
-206 33 -48 54 -54 86 -24 38 35 38 56 -1 110 -20 28 -36 57 -36 66 0 24 26
67 62 100 60 57 78 53 153 -28z m1331 19 c15 -18 33 -45 40 -62 13 -32 9 -44
-41 -114 -34 -46 -31 -65 11 -98 l36 -27 31 39 c89 115 222 201 346 225 104
20 204 -24 275 -119 60 -83 79 -150 74 -264 -3 -77 -9 -102 -35 -157 -47 -97
-127 -187 -265 -296 l-123 -98 -128 16 c-71 9 -131 19 -135 22 -3 3 20 38 50
78 70 92 78 108 78 155 0 79 -59 142 -135 145 -43 2 -78 -30 -73 -66 3 -18 49
-58 81 -69 7 -2 -7 -28 -36 -66 -44 -57 -67 -97 -81 -143 -4 -14 -16 -18 -50
-18 -25 0 -47 4 -50 9 -3 5 2 33 10 62 12 40 15 77 11 141 -5 79 -3 91 20 138
37 74 86 104 168 103 81 -1 151 -32 228 -103 89 -82 89 -82 18 -154 -34 -34
-61 -69 -61 -77 0 -17 46 -69 61 -69 11 0 194 147 245 197 142 139 121 371
-41 456 -91 48 -234 11 -296 -77 -47 -67 -45 -66 -86 -54 -21 6 -67 7 -107 3
l-71 -6 -44 73 c-24 40 -71 99 -104 130 l-59 57 58 62 c33 34 68 65 79 69 29
11 71 -7 101 -43z m-661 28 c63 -17 216 -93 222 -111 2 -6 -20 -36 -49 -67
l-53 -56 -37 25 c-27 17 -38 32 -38 49 0 20 -7 25 -37 32 -52 11 -182 7 -215
-6 -19 -7 -28 -18 -28 -33 0 -22 -46 -58 -73 -58 -7 0 -33 24 -59 54 -44 50
-46 55 -30 69 26 23 120 68 192 93 78 27 127 29 205 9z m-1667 -139 c3 -3 -7
-28 -21 -54 -56 -103 -71 -239 -42 -376 8 -38 14 -71 12 -72 -2 -3 -245 -64
-253 -64 -24 0 -61 232 -68 422 -4 139 -3 157 11 160 25 5 354 -10 361 -16z
m3522 -91 c0 -143 -15 -286 -40 -389 -11 -44 -22 -81 -24 -83 -2 -2 -37 5 -77
15 -41 11 -98 23 -128 27 l-53 7 6 37 c31 183 30 266 -5 369 -11 31 -29 66
-41 79 -12 13 -19 25 -16 28 5 5 222 21 326 24 l52 1 0 -115z m-4165 75 c118
-24 146 -35 139 -55 -11 -27 16 -306 40 -425 13 -64 40 -157 60 -207 20 -50
36 -95 36 -100 0 -5 -60 -20 -132 -32 -73 -12 -141 -24 -150 -27 -13 -4 -21 9
-37 63 -35 121 -69 266 -86 368 -15 91 -36 420 -28 437 4 8 20 6 158 -22z
m4592 -5 c4 -85 -20 -346 -42 -465 -30 -157 -83 -358 -97 -366 -5 -3 -74 4
-153 16 l-143 23 13 36 c7 20 25 67 40 106 48 125 76 307 88 564 l2 54 45 14
c64 20 212 52 230 49 9 -1 16 -13 17 -31z m-2737 -86 c22 -28 40 -55 40 -60 0
-5 -19 -30 -42 -54 -24 -25 -48 -60 -55 -78 -12 -34 -17 -292 -7 -346 7 -32 7
-32 63 -29 l56 3 5 165 c6 187 8 193 100 270 45 37 195 140 205 140 5 0 163
-110 214 -149 19 -14 47 -44 63 -65 28 -39 28 -40 28 -196 0 -178 -4 -170 81
-170 l49 0 0 170 c0 196 -5 214 -74 288 l-46 49 29 39 c15 21 37 47 49 58 20
18 22 18 50 -3 33 -23 97 -104 137 -173 l27 -48 -28 -47 c-65 -115 -66 -119
-59 -214 4 -55 3 -114 -5 -158 l-12 -71 -156 7 c-198 10 -491 10 -694 1 l-157
-8 -11 54 c-6 30 -10 110 -8 179 l3 124 -44 63 -44 63 29 55 c28 53 147 192
165 192 5 0 27 -23 49 -51z m-2715 -84 c28 -27 32 -62 10 -91 -14 -19 -14 -19
-15 2 0 30 -33 56 -67 52 -20 -2 -33 -12 -44 -36 -13 -25 -18 -29 -23 -16 -22
56 18 114 79 114 25 0 44 -8 60 -25z m6270 0 c16 -15 25 -36 25 -54 0 -38 -16
-49 -24 -16 -6 25 -38 40 -73 33 -10 -2 -25 -17 -34 -35 -14 -29 -16 -30 -27
-12 -16 26 -15 39 8 77 17 28 25 32 60 32 30 0 47 -7 65 -25z m-4298 -35 c15
-11 33 -30 42 -42 14 -20 12 -23 -20 -47 -19 -14 -63 -53 -97 -86 -62 -58 -64
-59 -79 -40 -20 27 -43 80 -43 102 0 32 43 105 74 124 37 24 84 20 123 -11z
m2333 15 c70 -36 92 -139 44 -208 l-25 -38 -71 66 c-38 36 -80 71 -94 77 -37
17 -29 44 24 83 52 38 78 42 122 20z m-2564 -620 c70 -58 78 -67 62 -76 -19
-10 -202 -49 -207 -43 -12 12 73 154 92 154 5 0 29 -16 53 -35z m2765 -7 c30
-41 64 -107 57 -113 -5 -4 -180 33 -202 43 -18 8 -17 11 15 39 63 58 82 73 90
73 5 0 23 -19 40 -42z m-4487 -88 c23 -5 94 -12 158 -16 l118 -7 29 -51 c15
-28 39 -70 52 -93 36 -63 23 -77 -72 -78 -78 -1 -112 -13 -168 -61 -34 -28
-38 -49 -16 -78 8 -11 15 -25 15 -31 0 -10 -50 -45 -64 -45 -6 0 -56 106 -56
120 0 4 29 43 65 88 36 44 65 84 65 89 0 5 -25 21 -55 36 -63 32 -72 30 -129
-33 l-37 -41 -55 47 c-30 26 -53 52 -51 58 8 24 129 117 145 111 8 -3 34 -10
56 -15z m3566 -5 c402 -38 742 -101 980 -181 206 -70 190 -55 190 -179 0 -58
-1 -105 -2 -105 -2 0 -21 7 -43 14 l-40 14 4 76 3 75 -57 26 c-32 14 -59 25
-61 25 -2 0 -4 -36 -4 -80 0 -44 -3 -80 -6 -80 -3 0 -40 9 -82 19 -43 11 -106
25 -141 30 -35 6 -66 13 -69 16 -4 3 -9 38 -13 76 -3 39 -11 75 -17 81 -6 6
-31 13 -57 16 l-48 5 8 -77 c5 -60 4 -76 -7 -77 -22 -2 -50 0 -110 6 l-57 6
-7 79 c-3 44 -12 84 -18 89 -6 5 -33 12 -59 16 l-48 7 7 -87 7 -87 -94 7 c-52
4 -95 8 -96 9 -2 2 -8 38 -14 82 -6 43 -14 82 -17 86 -4 4 -31 10 -59 14 -61
8 -59 12 -43 -96 5 -36 6 -68 2 -72 -4 -4 -58 -5 -120 -1 l-112 6 0 57 c0 32
-3 72 -6 89 -6 30 -9 31 -55 31 l-48 0 -3 -87 -3 -88 -97 -3 -98 -3 0 91 c0
79 -2 90 -17 91 -30 2 -78 -3 -83 -8 -3 -2 -7 -41 -10 -86 l-5 -82 -109 -8
c-59 -5 -110 -6 -112 -4 -3 3 0 42 5 88 6 45 9 84 7 87 -2 2 -29 1 -59 -3
l-55 -7 -12 -84 c-7 -46 -16 -86 -20 -89 -5 -3 -50 -8 -101 -12 l-92 -6 6 44
c3 24 9 63 13 87 l7 43 -54 -7 c-30 -4 -57 -12 -61 -18 -4 -6 -10 -31 -13 -56
-15 -114 -12 -108 -58 -114 -23 -3 -64 -8 -91 -11 l-49 -7 7 41 c3 23 9 60 13
83 l6 41 -53 -6 c-29 -4 -57 -10 -62 -15 -5 -5 -12 -42 -15 -81 -3 -42 -11
-75 -18 -77 -7 -3 -76 -20 -154 -38 l-141 -33 0 84 c0 45 -2 83 -4 83 -2 0
-29 -11 -61 -25 l-58 -26 6 -74 5 -73 -39 -16 c-22 -9 -44 -16 -49 -16 -11 0
-13 79 -4 157 l7 52 66 26 c269 108 594 178 1051 225 306 32 759 34 1070 5z
m2688 -31 c34 -31 62 -59 62 -62 0 -4 -25 -29 -56 -56 l-56 -49 -40 46 c-44
52 -68 58 -121 31 -53 -27 -58 -33 -45 -58 6 -11 36 -50 66 -85 l55 -63 -18
-54 c-24 -70 -33 -77 -73 -57 -35 17 -39 30 -17 59 28 36 18 58 -41 94 -60 36
-155 53 -169 30 -5 -8 -16 -3 -36 16 -16 15 -29 31 -29 34 0 4 24 47 54 96
l53 89 114 7 c63 4 137 14 164 21 28 8 55 15 61 16 6 0 38 -24 72 -55z m-5711
-169 c19 -8 65 -20 102 -25 133 -20 143 -30 55 -56 -39 -11 -70 -14 -107 -9
-29 4 -54 6 -57 4 -21 -16 26 -160 80 -247 22 -35 40 -68 40 -73 0 -5 -10 -13
-22 -18 -33 -12 -66 14 -139 112 -34 45 -66 84 -70 85 -5 2 -49 -36 -97 -85
-50 -50 -107 -97 -131 -107 -42 -19 -42 -19 -62 1 l-20 20 54 41 c63 47 111
109 161 208 44 85 60 105 110 138 45 30 54 31 103 11z m5134 -13 c56 -36 59
-40 112 -147 44 -89 96 -153 170 -210 35 -27 37 -32 24 -49 -14 -19 -16 -19
-62 -2 -34 13 -71 43 -133 107 -86 88 -105 101 -115 76 -10 -26 -129 -177
-147 -187 -14 -7 -28 -7 -49 2 l-30 13 48 77 c48 78 91 187 91 234 0 23 -3 25
-31 19 -48 -11 -189 4 -189 20 0 15 14 21 83 30 26 3 71 15 100 25 70 25 76
24 128 -8z m-4428 -309 c-9 -7 -22 -13 -27 -13 -10 1 -96 111 -96 123 0 3 26
22 58 41 l57 36 13 -87 c11 -80 11 -89 -5 -100z m3673 156 c29 -16 56 -34 59
-39 8 -13 -17 -57 -57 -104 -33 -38 -33 -38 -55 -20 -19 17 -20 26 -16 107 3
48 8 87 11 87 2 0 29 -14 58 -31z m-4066 -56 c12 -16 43 -50 69 -78 48 -50 71
-84 71 -104 0 -21 -55 -11 -106 19 -51 29 -169 148 -158 159 8 9 67 29 86 30
9 1 26 -11 38 -26z m4508 6 c23 -9 23 -9 5 -40 -53 -92 -253 -207 -253 -145 0
17 29 56 100 134 69 77 74 79 148 51z m-2149 -8 c11 -7 11 -20 2 -75 -14 -80
1 -126 48 -150 30 -16 30 -16 45 16 8 18 20 63 27 101 11 65 12 67 41 67 16 0
100 -12 185 -26 155 -26 156 -26 242 -9 47 10 124 20 171 22 86 5 371 -21 398
-36 11 -6 7 -14 -19 -33 -83 -63 -241 -116 -479 -163 -227 -44 -247 -47 -330
-47 -78 0 -151 21 -194 56 l-30 23 -20 -41 c-37 -73 -105 -75 -154 -5 -28 41
-29 42 -91 41 -34 0 -63 -2 -65 -3 -43 -64 -71 -89 -96 -89 -40 0 -90 44 -90
79 0 21 8 31 35 44 57 27 69 55 61 147 -6 70 -4 79 11 83 33 9 288 7 302 -2z
m-439 -98 c6 -32 16 -70 22 -85 15 -39 3 -70 -35 -95 -120 -77 -276 -70 -687
29 -115 27 -252 87 -303 132 -35 30 -35 30 133 51 166 20 242 19 383 -6 l118
-21 112 21 c152 27 156 28 204 30 l42 1 11 -57z m1908 -113 c45 -28 67 -81 54
-135 -7 -31 -10 -34 -11 -14 -2 39 -37 77 -81 89 -46 12 -68 5 -148 -50 -149
-101 -333 -144 -356 -83 -10 26 11 38 119 68 132 36 194 60 266 100 32 19 71
36 86 38 16 2 30 5 33 5 3 1 20 -7 38 -18z m-3051 -40 c59 -30 144 -62 212
-80 132 -36 131 -35 131 -60 0 -30 -36 -43 -101 -37 -68 6 -145 39 -250 108
-89 58 -140 67 -186 33 -27 -20 -32 -28 -51 -74 -10 -22 -11 -20 -11 23 -2 86
41 137 115 137 31 0 69 -14 141 -50z m-1217 -44 c0 -6 -30 -40 -66 -76 -37
-36 -81 -87 -100 -114 l-32 -48 -37 72 c-20 40 -34 74 -32 76 2 3 40 22 83 43
44 22 95 50 114 64 32 23 37 24 53 9 9 -8 17 -20 17 -26z m5516 -72 c20 -4 34
-12 34 -20 0 -19 -58 -134 -68 -134 -4 0 -19 19 -34 43 -15 24 -59 74 -98 111
-38 37 -70 70 -70 74 0 3 7 13 16 23 14 16 21 13 101 -37 47 -29 101 -56 119
-60z m-5021 -44 c187 -27 344 -167 384 -341 14 -58 14 -165 1 -190 -7 -12 -21
-19 -40 -19 -30 0 -30 1 -30 55 0 114 -57 203 -159 248 -35 15 -59 18 -120 15
-122 -7 -216 -69 -268 -176 -24 -51 -28 -68 -28 -157 0 -83 4 -110 24 -160 52
-127 137 -227 253 -298 228 -138 595 -116 873 51 33 20 125 82 206 138 147
104 264 169 353 199 71 23 181 45 227 45 33 0 41 -4 51 -27 34 -79 94 -123
168 -123 111 0 200 -103 187 -216 -9 -82 -69 -176 -223 -349 -49 -55 -116
-132 -149 -170 -91 -108 -262 -281 -341 -346 -106 -87 -236 -164 -349 -208
-176 -69 -183 -61 -26 32 196 115 327 212 452 337 122 121 180 203 226 315 45
109 43 131 -4 74 -64 -77 -325 -338 -403 -404 -258 -215 -636 -399 -925 -450
-129 -22 -323 -20 -421 5 -297 76 -518 307 -606 632 -28 105 -32 321 -7 378
l15 35 13 -50 c24 -96 83 -231 138 -320 32 -49 61 -91 65 -93 4 -2 8 -10 8
-17 0 -19 89 -94 168 -141 189 -114 344 -135 604 -83 101 20 266 73 283 91 7
8 5 9 -7 5 -10 -3 -57 -11 -105 -18 -227 -30 -494 37 -649 162 -55 46 -126
120 -147 156 -4 6 48 -20 115 -60 144 -83 273 -138 383 -162 62 -14 105 -17
209 -12 190 9 329 51 466 142 68 45 258 220 249 229 -2 3 -55 -16 -118 -41
-177 -71 -319 -103 -491 -110 -391 -16 -696 88 -915 313 -112 114 -169 225
-201 388 -49 250 73 519 290 641 42 24 93 42 139 50 91 17 97 17 182 5z m4480
-5 c97 -21 166 -57 240 -127 75 -70 136 -161 166 -250 27 -80 37 -250 20 -340
-60 -305 -313 -541 -687 -640 -116 -31 -125 -32 -334 -32 -201 0 -223 1 -335
28 -66 15 -173 50 -237 76 -65 26 -118 45 -118 41 0 -16 69 -87 154 -158 107
-90 228 -154 349 -186 68 -18 110 -21 242 -21 154 0 163 1 255 32 98 34 318
144 377 189 18 14 36 24 38 21 8 -7 -90 -121 -137 -160 -101 -83 -231 -137
-390 -163 -117 -19 -198 -19 -313 0 -49 8 -91 13 -92 11 -8 -8 110 -48 221
-76 258 -65 467 -55 636 30 70 35 170 110 203 153 14 17 39 49 56 70 43 55
116 208 152 322 36 110 43 109 60 -9 15 -103 -1 -226 -49 -370 -101 -303 -289
-486 -572 -557 -75 -19 -103 -21 -245 -16 -158 5 -195 12 -372 63 -161 47
-419 175 -578 286 -189 133 -279 213 -507 456 -48 50 -89 92 -92 92 -8 0 10
-51 42 -120 81 -177 264 -364 522 -537 101 -68 259 -164 290 -176 8 -4 -3 -4
-25 0 -58 8 -197 66 -289 119 -191 111 -336 244 -621 573 -185 212 -238 279
-267 335 -48 94 -41 181 21 246 36 38 71 52 163 65 63 8 108 41 137 98 27 55
38 57 163 33 156 -30 281 -92 507 -249 275 -192 449 -258 681 -260 151 -1 230
16 340 74 122 63 227 179 281 310 19 44 23 74 23 159 1 95 -2 110 -27 162 -30
61 -94 124 -155 154 -53 26 -171 31 -227 10 -56 -22 -121 -85 -146 -142 -11
-24 -22 -73 -26 -109 -5 -53 -9 -65 -24 -65 -73 0 -71 183 3 322 63 119 181
206 316 233 89 17 124 17 207 0z m-1485 -38 c-62 -91 -200 -125 -300 -74 -68
34 -62 44 30 46 74 2 224 35 269 61 25 14 26 3 1 -33z m-1619 8 c43 -15 113
-29 167 -34 51 -4 95 -11 98 -14 3 -3 -14 -17 -39 -31 -74 -43 -194 -32 -255
24 -34 30 -64 80 -49 80 2 0 37 -11 78 -25z m826 -5 c26 -16 52 -30 59 -30 7
0 20 -7 28 -16 13 -12 16 -41 16 -147 l0 -132 45 52 c25 28 63 66 85 83 l40
32 29 -21 c48 -34 154 -81 184 -81 15 0 90 25 166 55 76 30 143 55 148 55 6 0
50 16 97 35 97 39 104 40 211 24 l75 -11 0 -77 c0 -83 -34 -243 -70 -326 -12
-27 -23 -51 -25 -53 -2 -2 -21 8 -43 22 -164 103 -337 164 -500 176 -99 7
-115 10 -128 29 -40 56 -129 67 -183 22 l-34 -28 29 -7 c33 -9 64 -33 64 -52
0 -7 -11 -34 -25 -60 -14 -26 -25 -53 -25 -60 0 -8 -12 -16 -27 -19 -16 -3
-50 -15 -78 -27 -27 -11 -81 -31 -119 -45 -81 -29 -108 -25 -231 32 -42 20
-89 38 -105 42 -25 4 -30 10 -30 34 0 19 -9 37 -25 51 -14 12 -25 32 -25 44 0
25 43 64 71 64 30 0 22 15 -20 38 -62 35 -115 28 -171 -23 -21 -19 -43 -25
-130 -34 -58 -6 -139 -20 -180 -31 -80 -23 -231 -90 -312 -140 -27 -17 -53
-28 -58 -25 -13 8 -68 182 -85 268 -8 44 -15 103 -15 132 l0 53 88 12 c48 6
92 13 97 14 6 2 30 -6 55 -17 25 -10 88 -34 140 -52 52 -18 141 -51 198 -74
56 -22 111 -41 122 -41 31 0 114 35 165 69 l47 32 36 -28 c44 -33 122 -113
122 -125 0 -4 5 -8 11 -8 6 0 8 7 5 16 -3 8 -3 69 1 135 l6 120 58 29 c32 16
60 34 64 40 10 17 32 12 82 -20z m-1415 -66 c13 -31 13 -45 2 -93 -22 -90 -18
-125 16 -164 36 -42 39 -67 7 -67 -27 0 -71 42 -86 83 -6 16 -11 65 -11 109 0
63 5 90 22 124 12 24 25 44 29 44 4 0 13 -16 21 -36z m2775 4 c18 -35 25 -188
11 -240 -12 -41 -56 -88 -84 -88 -38 0 -40 26 -5 65 42 48 47 77 28 157 -17
70 -15 87 16 126 13 17 14 16 34 -20z m479 -585 c-6 -6 -36 9 -36 18 0 5 9 4
20 -3 10 -7 18 -14 16 -15z m44 -19 c0 -2 -7 -4 -15 -4 -8 0 -15 4 -15 10 0 5
7 7 15 4 8 -4 15 -8 15 -10z m-3477 -124 c-6 -6 -53 47 -53 61 0 5 13 -5 29
-23 16 -18 27 -35 24 -38z m3111 33 c-11 -15 -26 -29 -34 -31 -7 -3 0 11 16
31 32 41 48 41 18 0z m-3284 -62 c0 -14 -11 -19 -58 -30 -54 -11 -53 -5 1 19
49 22 57 23 57 11z m3517 -37 c-7 -8 -91 22 -94 33 -3 8 15 5 46 -9 29 -11 50
-22 48 -24z m-1807 -479 c30 0 71 3 91 7 35 6 38 4 68 -38 18 -24 30 -48 27
-53 -11 -17 -96 -31 -185 -31 -86 0 -191 16 -191 30 0 4 16 28 36 53 33 42 39
46 67 39 18 -4 57 -7 87 -7z m-330 -335 c-8 -15 -8 -20 -1 -16 8 5 11 -76 13
-276 2 -225 6 -282 16 -280 7 1 21 -2 31 -8 15 -8 22 -4 36 17 15 23 19 60 22
257 3 127 9 235 14 241 6 6 14 4 23 -5 11 -11 16 -55 20 -165 6 -154 13 -218
25 -213 4 2 25 23 48 48 l41 45 4 190 5 190 36 3 37 3 2 -143 c2 -79 3 -178 3
-220 l0 -77 -47 -48 c-27 -27 -48 -54 -48 -62 0 -7 35 -49 78 -94 43 -45 84
-92 90 -104 21 -38 4 -102 -40 -149 -21 -22 -38 -51 -38 -63 0 -25 12 -27 31
-5 9 11 23 14 45 11 l32 -5 6 176 c4 97 9 207 12 244 4 54 1 74 -15 107 -25
48 -28 101 -6 101 12 0 15 18 16 98 1 110 5 126 37 130 22 3 22 3 22 -135 l1
-138 38 -44 c35 -39 40 -41 49 -25 5 11 12 104 15 208 3 104 10 193 15 198 7
7 10 4 9 -8 -1 -13 6 -20 20 -22 12 -2 26 -9 32 -15 13 -16 15 -350 5 -852 -8
-423 -9 -409 46 -420 12 -2 28 -9 36 -16 12 -10 14 15 14 167 1 313 19 857 30
868 7 7 10 1 10 -18 0 -15 5 -37 12 -49 23 -43 37 -611 37 -1538 l1 -905 35
-34 35 -34 0 -187 c0 -171 -2 -188 -20 -212 -11 -14 -20 -30 -20 -36 0 -5 20
-31 45 -58 25 -26 45 -53 45 -60 0 -52 -151 -207 -266 -274 -247 -144 -487
-166 -748 -69 -125 47 -341 224 -391 320 l-16 32 51 54 51 54 -20 34 c-19 31
-21 49 -21 223 l0 189 36 35 36 34 -4 750 c-1 413 1 947 6 1188 8 395 10 438
25 447 47 25 45 70 49 -1222 l4 -1213 -36 -34 -36 -35 0 -151 0 -152 49 -69
c131 -188 312 -284 530 -284 210 0 394 100 522 282 l44 63 3 153 3 153 -40 37
-41 37 0 628 c0 345 -3 627 -7 627 -5 0 -50 -43 -101 -94 l-94 -94 21 -21 c19
-19 21 -33 21 -149 0 -118 2 -130 21 -148 54 -49 62 -124 20 -183 -18 -25 -21
-44 -21 -123 0 -81 3 -97 19 -112 46 -42 31 -100 -39 -156 l-40 -32 0 -101 0
-102 39 -16 c53 -23 76 -60 76 -126 0 -46 -4 -57 -32 -84 -62 -62 -168 -46
-209 32 -23 45 -14 112 20 148 26 27 26 30 26 168 l0 141 -26 17 c-26 17 -27
19 -21 97 6 73 5 79 -11 73 -9 -4 -41 -10 -69 -13 l-53 -4 0 -343 0 -343 34
-21 c43 -27 60 -68 53 -128 -7 -69 -48 -103 -122 -103 -46 0 -59 4 -89 30 -39
34 -54 88 -37 133 6 15 27 44 47 64 l37 36 -6 425 -5 425 -87 87 -87 87 4 721
3 721 -25 -23 c-14 -13 -36 -31 -50 -40 l-26 -16 1 -172 c0 -95 2 -465 3 -822
2 -558 4 -647 16 -631 12 16 18 17 39 8 14 -7 28 -22 32 -34 9 -29 -24 -73
-58 -77 -21 -3 -27 -9 -27 -27 0 -14 9 -29 21 -36 17 -9 25 -7 43 10 45 42
116 11 102 -44 -9 -37 -80 -80 -133 -80 l-43 0 0 -80 c0 -105 18 -158 57 -166
68 -14 107 -66 105 -137 -2 -45 -27 -81 -73 -105 -72 -38 -158 3 -180 87 -10
35 -8 45 20 99 30 58 31 64 31 194 0 124 -2 137 -22 166 -19 26 -22 43 -20 87
7 114 7 1806 0 1835 -8 33 6 626 15 664 9 32 26 51 43 44 8 -3 14 1 14 8 0 7
3 10 6 7 3 -4 0 -16 -6 -28z m-2491 -346 c10 -9 12 -25 6 -60 l-7 -48 -70 75
c-38 40 -81 86 -95 101 l-26 27 24 20 24 19 65 -61 c36 -33 71 -66 79 -73z
m5825 104 c9 -15 -2 -30 -67 -95 -42 -43 -83 -87 -91 -98 -13 -18 -15 -17 -26
23 -6 24 -10 48 -8 53 6 19 153 139 167 136 8 -1 19 -10 25 -19z m-6047 -195
c52 -51 107 -119 157 -195 92 -139 152 -197 269 -262 48 -27 99 -60 112 -72
l25 -23 0 -250 0 -250 29 -20 c35 -25 61 -77 61 -123 0 -75 -74 -147 -150
-148 -114 0 -189 140 -122 229 18 25 70 66 95 74 13 4 24 383 13 441 -6 27
-19 37 -95 78 -125 67 -179 114 -267 230 -42 57 -86 113 -97 125 -19 21 -21
21 -33 5 -18 -23 -17 -130 1 -182 32 -90 112 -168 237 -232 40 -20 79 -41 86
-48 7 -6 12 -36 12 -75 l0 -65 -29 0 c-48 0 -181 46 -250 87 -69 41 -156 128
-196 197 -65 110 -80 279 -36 396 25 64 78 160 89 160 5 0 45 -35 89 -77z
m6230 10 c106 -182 81 -422 -62 -581 -81 -90 -278 -192 -371 -192 l-35 0 3 67
3 67 85 48 c169 93 249 192 257 318 5 62 -7 120 -25 120 -4 0 -39 -44 -77 -97
-87 -122 -163 -198 -240 -242 -33 -18 -84 -46 -112 -62 l-53 -29 0 -233 0
-232 48 -22 c114 -52 123 -199 16 -260 -156 -90 -297 113 -169 242 l35 34 0
255 0 255 136 77 c150 84 164 98 282 279 38 58 99 133 145 178 88 87 88 87
134 10z m-2468 -59 c9 -20 12 -274 11 -1046 l0 -1019 156 -162 156 -162 -4
-120 c-4 -132 -24 -195 -75 -235 -61 -48 -157 -47 -203 2 -24 26 -25 38 -5 64
14 19 15 19 54 -3 52 -30 82 -29 120 3 l31 26 0 111 0 112 -155 160 -154 160
-1 762 c0 498 3 764 10 768 6 4 10 115 10 299 0 161 3 296 7 299 13 14 30 6
42 -19z m-3278 -24 c16 -9 19 -22 19 -91 0 -72 -3 -83 -22 -100 -31 -25 -60
-24 -86 4 -17 18 -19 26 -10 35 7 7 17 12 24 12 18 0 24 24 24 91 0 63 9 71
51 49z m5171 -56 c4 -57 7 -68 34 -89 l29 -25 -24 -20 c-30 -26 -52 -25 -85 1
-26 20 -27 25 -24 102 3 85 5 87 59 96 4 1 9 -28 11 -65z m-3295 28 c8 -5 13
-79 15 -260 2 -181 6 -253 15 -256 9 -4 12 -192 12 -770 l1 -765 -124 -133
c-68 -73 -138 -146 -155 -162 l-31 -30 0 -110 c0 -106 1 -111 27 -138 33 -34
79 -37 117 -7 32 25 53 19 62 -16 8 -32 -7 -50 -60 -70 -58 -22 -117 -7 -167
44 -47 47 -59 91 -59 226 l0 110 150 156 149 157 3 1003 c2 552 7 1010 11
1017 9 14 17 15 34 4z m-1632 -78 c18 -13 20 -27 20 -113 0 -128 -23 -159 -85
-112 -24 19 -24 20 -6 40 14 15 20 42 24 111 5 94 10 102 47 74z m4685 -65 c0
-59 5 -89 18 -111 17 -29 17 -30 -7 -49 -56 -46 -81 -9 -81 122 0 97 0 97 28
107 15 6 30 11 35 11 4 1 7 -35 7 -80z m-3850 -286 l0 -348 -38 -27 c-20 -15
-100 -73 -177 -129 -77 -56 -151 -106 -165 -110 -14 -4 -41 -12 -61 -18 -80
-24 -129 1 -129 66 0 68 69 101 133 64 39 -23 40 -23 66 -4 14 11 78 57 141
102 174 125 154 71 158 431 5 332 2 315 55 319 16 1 17 -22 17 -346z m3014
341 c14 -5 16 -31 17 -173 1 -91 4 -233 8 -316 l6 -149 125 -89 c69 -49 142
-100 162 -114 l37 -25 34 21 c45 28 69 27 106 -5 41 -34 42 -75 2 -115 -33
-32 -57 -36 -87 -14 -10 8 -31 15 -45 15 -29 0 -75 29 -279 178 l-135 98 -3
44 c-2 25 -1 181 3 348 8 315 7 312 49 296z m-650 -20 c14 -13 16 -60 16 -358
0 -189 3 -398 7 -466 l6 -123 46 -44 45 -43 19 30 c21 33 24 34 62 20 35 -13
50 -55 30 -86 -8 -13 -22 -24 -30 -24 -12 0 -15 -18 -15 -98 0 -55 3 -133 6
-174 l7 -76 36 5 c72 8 140 -68 128 -144 -19 -112 -151 -147 -232 -62 l-30 30
3 230 4 230 -80 78 -80 79 -1 423 c-1 577 3 623 53 573z m-2956 -170 l-3 -166
-58 -41 c-51 -36 -67 -42 -123 -45 l-64 -4 0 34 c0 33 1 34 61 45 35 7 74 22
95 38 l34 26 0 140 0 139 30 0 30 0 -2 -166z m190 154 c9 -9 12 -70 12 -215
l0 -203 -30 0 -30 0 0 215 c0 200 1 215 18 215 10 0 23 -5 30 -12z m212 -242
c0 -215 -2 -255 -15 -266 -12 -10 -21 -10 -40 -2 l-25 12 0 248 c0 137 3 252
7 255 3 4 21 7 40 7 l33 0 0 -254z m3420 3 c0 -228 -2 -253 -17 -265 -24 -18
-50 -17 -57 2 -3 9 -6 128 -6 265 l0 249 40 0 40 0 0 -251z m174 245 c14 -5
16 -33 16 -210 l0 -204 -26 -10 c-14 -6 -27 -10 -30 -10 -7 0 -5 426 3 433 8
9 17 9 37 1z m204 -6 c8 -8 12 -54 12 -139 l0 -128 36 -29 c25 -21 51 -31 86
-35 62 -8 73 -17 64 -53 -7 -26 -8 -27 -69 -22 -47 4 -75 13 -115 38 -29 17
-57 40 -62 50 -11 20 -14 270 -4 308 7 24 33 29 52 10z m-2956 -360 c2 -200 3
-419 2 -488 0 -69 -1 -309 -2 -535 l-2 -410 -57 -61 c-32 -34 -129 -130 -216
-213 -138 -131 -163 -151 -191 -151 -22 0 -40 -8 -56 -25 -32 -34 -82 -34
-115 0 -76 75 38 184 115 110 l27 -25 206 201 207 201 0 198 c0 109 -3 205 -6
214 -3 9 -16 16 -28 16 -50 0 -59 20 -67 141 -4 63 -8 115 -8 117 -1 2 -5 0
-11 -3 -17 -11 -50 15 -50 39 0 30 36 76 60 76 10 0 27 -11 38 -25 l19 -24 25
27 c24 25 26 37 37 197 6 94 11 305 11 471 0 165 3 304 7 307 3 4 17 7 30 7
l23 0 2 -362z m1874 332 c12 0 14 -38 14 -237 0 -131 3 -255 6 -275 6 -35 9
-38 41 -38 28 0 44 -9 74 -39 34 -33 39 -45 39 -83 0 -61 -33 -108 -88 -128
-37 -13 -47 -13 -84 0 -76 27 -112 122 -73 190 11 20 14 82 15 310 0 157 3
295 6 307 5 20 8 20 21 8 8 -8 21 -15 29 -15z m-2036 -302 c0 -239 2 -262 20
-298 39 -77 14 -167 -55 -196 -93 -38 -185 18 -185 114 0 78 45 126 125 134
l30 3 3 256 2 255 30 -4 30 -4 0 -260z m-165 150 c3 -46 3 -146 -2 -223 l-8
-140 -27 -3 -28 -3 0 210 c0 115 3 216 6 225 3 9 17 16 29 16 22 0 24 -5 30
-82z m2374 50 c5 -13 9 -112 10 -220 l2 -198 -24 0 c-45 0 -47 11 -47 232 l0
208 25 0 c17 0 28 -7 34 -22z m-2537 -456 c2 -235 0 -435 -4 -444 -4 -9 -8
-183 -8 -386 l0 -370 -102 -97 c-127 -121 -203 -179 -223 -171 -8 3 -21 17
-27 32 -10 22 -10 27 6 36 11 6 74 62 142 126 l124 115 0 342 0 342 -32 23
c-18 13 -52 49 -75 80 -40 54 -43 62 -43 124 0 36 4 66 9 66 5 0 23 3 40 6 31
6 31 6 31 -36 0 -53 32 -103 64 -98 21 3 21 4 26 366 5 382 6 386 50 375 17
-5 19 -30 22 -431z m2700 410 c4 -4 8 -189 8 -410 l1 -403 22 7 c12 4 29 7 37
8 12 1 16 22 20 106 l5 105 35 -3 c19 -2 36 -5 37 -6 1 -1 5 -216 9 -478 l7
-476 114 -114 c62 -62 113 -116 113 -120 0 -4 -13 -14 -30 -23 l-29 -15 -84
77 c-46 43 -104 97 -130 121 l-47 43 0 312 0 313 -41 -4 -42 -4 7 -121 c3 -66
6 -200 6 -298 l0 -178 58 -48 c96 -79 252 -217 252 -223 -1 -3 -9 -15 -20 -28
l-19 -23 -37 24 c-20 14 -99 80 -175 147 l-139 122 0 805 0 805 28 -7 c15 -3
30 -10 34 -13z m667 -352 c33 -25 47 -29 112 -32 l74 -3 3 -32 3 -33 -84 0
c-76 0 -88 3 -123 28 -62 46 -70 59 -49 82 10 11 20 20 23 20 2 0 21 -13 41
-30z m-4035 4 c21 -21 20 -26 -11 -56 -44 -41 -67 -48 -152 -48 l-81 0 0 36
c0 34 2 35 33 34 86 -5 116 0 144 25 33 29 46 31 67 9z m3691 -346 l25 -11 0
-327 0 -327 65 -63 c45 -43 71 -60 83 -57 85 28 97 30 134 14 67 -28 94 -100
64 -172 -41 -98 -206 -82 -231 22 -9 35 -24 53 -95 113 -47 40 -89 75 -94 80
-9 9 -9 717 0 732 7 11 18 10 49 -4z m-3351 -14 c3 -9 6 -169 6 -357 l0 -342
-88 -79 c-69 -62 -90 -88 -103 -125 -47 -138 -249 -113 -249 31 0 47 34 96 78
115 37 16 48 15 132 -13 9 -3 41 19 78 52 l62 56 0 327 c0 241 3 330 12 339
17 17 65 15 72 -4z m2539 -182 c14 -15 16 -58 16 -325 0 -198 4 -321 12 -345
8 -26 33 -57 87 -106 43 -38 132 -123 198 -188 67 -65 126 -118 131 -118 6 0
18 9 28 20 42 47 135 7 135 -58 0 -70 -91 -109 -139 -58 -12 12 -39 28 -60 35
-28 8 -93 62 -247 207 -115 108 -212 201 -215 207 -3 7 -4 177 -1 380 4 338 6
367 22 367 9 0 24 -8 33 -18z m-2373 -378 l5 -319 -115 -115 -115 -115 -37 9
c-21 5 -38 12 -38 15 0 3 52 59 115 124 l115 118 0 314 0 315 33 -13 32 -13 5
-320z m-529 319 c33 -20 46 -64 30 -105 -13 -35 -43 -50 -89 -46 -29 2 -41 10
-60 38 -27 41 -23 74 14 108 30 26 65 28 105 5z m4134 -8 c54 -53 16 -145 -60
-145 -77 0 -112 85 -58 142 35 37 84 38 118 3z m-3245 -206 l0 -76 35 -6 c139
-23 150 -208 15 -247 -116 -33 -220 114 -143 202 15 17 14 79 -3 216 -10 85
-1 91 51 35 44 -48 44 -48 45 -124z m-641 -724 c74 -38 42 -146 -43 -148 -80
-2 -111 87 -50 141 29 26 54 28 93 7z m3630 -11 c58 -49 27 -134 -49 -134 -75
0 -108 83 -55 135 31 32 66 32 104 -1z"/>
<path d="M5060 9093 c0 -64 8 -73 62 -73 l49 0 -3 48 -3 47 -52 3 c-52 3 -53
3 -53 -25z"/>
<path d="M4870 9097 c-25 -5 -46 -10 -47 -11 -1 -1 4 -22 11 -46 9 -30 19 -45
30 -44 9 0 30 1 47 2 l30 2 -7 48 c-3 26 -9 50 -13 53 -3 3 -26 2 -51 -4z"/>
<path d="M5300 9056 c0 -47 9 -56 60 -56 25 0 29 4 35 41 8 49 -1 59 -57 59
l-38 0 0 -44z"/>
<path d="M4613 9035 c-38 -16 -38 -15 -17 -84 18 -61 15 -105 -7 -109 -11 -2
-22 21 -44 90 -16 51 -30 95 -32 97 -2 2 -21 -1 -43 -8 -49 -15 -49 -19 -9
-142 37 -109 52 -135 83 -143 30 -7 116 18 150 45 32 25 33 50 4 175 -23 102
-26 105 -85 79z"/>
<path d="M5542 8953 c-31 -137 -30 -145 20 -182 33 -25 52 -31 91 -31 26 0 56
4 66 10 31 16 107 238 88 256 -13 14 -78 22 -82 11 -46 -161 -65 -201 -86
-180 -10 10 -9 27 4 82 22 91 22 100 -8 111 -71 27 -68 30 -93 -77z"/>
<path d="M4078 8829 c-21 -11 -38 -23 -38 -28 0 -13 22 -71 27 -71 9 0 93 41
93 46 0 14 -30 74 -37 74 -4 -1 -25 -10 -45 -21z"/>
<path d="M3851 8774 l-31 -25 41 -55 c23 -30 46 -54 53 -54 17 1 46 26 46 40
0 15 -62 120 -72 120 -3 0 -20 -12 -37 -26z"/>
<path d="M6101 8819 c-16 -47 -14 -56 17 -63 15 -3 37 -8 49 -12 18 -5 23 0
32 32 6 21 9 39 8 39 -1 1 -15 7 -32 12 -16 6 -37 14 -46 18 -12 5 -19 -2 -28
-26z"/>
<path d="M6309 8744 c-20 -34 -34 -66 -30 -72 6 -9 45 -32 55 -32 3 0 23 26
45 59 l40 58 -37 25 -38 24 -35 -62z"/>
<path d="M3611 8545 c-17 -20 -31 -39 -31 -43 1 -4 34 -28 76 -54 72 -47 114
-60 114 -36 0 19 -102 168 -116 168 -6 0 -26 -16 -43 -35z"/>
<path d="M6580 8583 c0 -5 -20 -35 -45 -68 -54 -72 -72 -115 -48 -115 18 0
105 49 148 84 l30 24 -31 38 c-30 37 -54 54 -54 37z"/>
<path d="M3364 8233 c-11 -27 -20 -51 -22 -54 -1 -3 32 -19 75 -34 42 -15 101
-41 130 -57 30 -17 55 -29 57 -27 10 11 56 89 56 94 0 8 -247 125 -264 125 -7
0 -22 -21 -32 -47z"/>
<path d="M3291 8064 c-7 -26 -11 -47 -9 -49 2 -1 32 -8 68 -14 35 -7 93 -24
129 -37 79 -30 87 -30 95 0 3 13 8 31 11 38 7 17 -69 54 -179 87 -97 30 -102
29 -115 -25z"/>
<path d="M6712 8225 c-147 -71 -142 -63 -91 -137 l19 -26 74 37 c41 21 102 46
135 56 l59 19 -29 58 c-16 32 -30 58 -32 58 -1 -1 -62 -30 -135 -65z"/>
<path d="M6885 8103 c-37 -8 -200 -63 -214 -72 -12 -8 -12 -16 -2 -54 l13 -45
56 23 c32 13 94 31 140 41 89 19 91 22 68 79 -15 34 -21 37 -61 28z"/>
<path d="M3250 7557 c0 -46 3 -126 7 -177 l6 -92 50 5 c27 2 64 1 81 -3 17 -4
36 -5 41 -3 11 3 8 324 -3 334 -4 4 -46 10 -94 13 l-88 7 0 -84z"/>
<path d="M6910 7634 c-14 -2 -43 -7 -65 -9 l-40 -5 0 -165 0 -164 87 0 86 0 7
92 c3 51 5 128 3 172 -3 87 -6 90 -78 79z"/>
<path d="M2870 7543 l0 -103 40 0 40 0 0 88 c0 48 -4 92 -8 98 -4 6 -22 13
-39 16 l-33 5 0 -104z"/>
<path d="M2886 7303 l-39 -4 6 -67 c6 -71 32 -199 45 -220 12 -18 172 5 172
26 0 7 -7 39 -16 70 -9 31 -22 88 -28 126 l-12 71 -45 1 c-24 1 -62 -1 -83 -3z"/>
<path d="M7323 7643 c-21 -4 -23 -10 -25 -84 -1 -43 -2 -87 -2 -96 -1 -14 8
-19 35 -21 l37 -3 6 78 c4 43 5 85 3 93 -4 20 -17 40 -25 39 -4 -1 -17 -4 -29
-6z"/>
<path d="M7236 7302 c-2 -4 -9 -34 -15 -67 -6 -33 -20 -91 -31 -130 -11 -38
-20 -73 -20 -76 0 -6 170 -32 176 -27 6 7 42 184 48 239 l6 56 -38 7 c-52 8
-120 8 -126 -2z"/>
<path d="M5039 7452 c-72 -37 -108 -100 -109 -187 0 -73 20 -117 73 -159 36
-29 44 -31 122 -31 78 0 86 2 122 31 80 64 98 157 50 255 -28 57 -70 93 -128
109 -52 15 -72 12 -130 -18z m130 -138 c28 -36 26 -68 -5 -93 -34 -27 -52 -26
-81 1 -30 28 -29 63 2 93 31 32 58 32 84 -1z"/>
<path d="M3815 6636 l-50 -12 -3 -67 -3 -68 53 7 c29 3 57 10 63 15 5 5 11 38
13 74 5 73 8 70 -73 51z"/>
<path d="M6360 6580 c0 -77 3 -80 76 -80 l44 0 0 60 0 59 -37 10 c-91 22 -83
27 -83 -49z"/>
<path d="M4969 3668 c-13 -17 -18 -28 -11 -24 16 9 16 -6 0 -22 -8 -8 -9 -12
-1 -12 8 0 12 -50 13 -157 1 -87 4 -174 6 -193 3 -19 7 -270 9 -557 l3 -522
46 -46 46 -46 0 669 0 668 36 42 c19 23 34 48 32 56 -2 7 -38 50 -80 95 l-77
81 -22 -32z"/>
<path d="M5160 2651 l0 -571 40 0 c27 0 47 7 60 20 19 19 20 34 21 473 0 248
2 464 4 480 2 15 -3 40 -11 55 -7 15 -14 37 -14 50 0 16 -6 22 -24 22 -13 0
-35 9 -50 21 l-26 20 0 -570z"/>
<path d="M5515 2781 l0 -60 28 26 c15 15 27 32 27 38 0 11 -41 55 -51 55 -2 0
-4 -27 -4 -59z"/>
<path d="M5365 2090 c-14 -43 44 -67 68 -29 16 26 1 49 -32 49 -21 0 -32 -6
-36 -20z"/>
<path d="M5235 2001 c-59 -15 -76 -30 -73 -63 2 -17 10 -35 19 -41 31 -20 103
37 111 88 3 22 -13 27 -57 16z"/>
<path d="M4812 1258 c-18 -18 -14 -46 7 -58 38 -20 71 13 51 51 -12 21 -40 25
-58 7z"/>
<path d="M5380 1251 c-15 -28 -13 -39 10 -51 26 -14 60 3 60 30 0 18 -27 40
-49 40 -6 0 -15 -9 -21 -19z"/>
<path d="M5090 999 c-17 -30 8 -54 45 -45 21 5 26 12 23 34 -4 36 -51 44 -68
11z"/>
<path d="M2522 2707 c-31 -33 -29 -87 4 -121 32 -32 62 -33 98 -5 49 39 53 90
11 132 -25 26 -87 22 -113 -6z"/>
<path d="M7610 2710 c-26 -26 -27 -89 -1 -121 14 -18 29 -24 61 -24 32 0 47 6
61 24 27 33 25 94 -3 121 -29 27 -91 27 -118 0z"/>
<path d="M6210 2095 c-29 -35 20 -74 56 -45 18 16 18 25 -2 44 -19 20 -38 20
-54 1z"/>
<path d="M6180 2935 c-22 -26 -8 -50 30 -50 25 0 36 5 38 18 5 23 -15 47 -38
47 -10 0 -23 -7 -30 -15z"/>
<path d="M4010 2929 c-9 -15 -8 -24 1 -35 18 -21 57 -18 64 6 14 44 -44 69
-65 29z"/>
<path d="M7057 1884 c-14 -14 -7 -43 12 -49 29 -9 52 5 49 29 -3 21 -46 35
-61 20z"/>
<path d="M3145 1884 c-9 -9 -14 -21 -12 -27 6 -18 33 -31 51 -24 21 8 21 53 0
61 -21 8 -20 8 -39 -10z"/>
<path d="M3993 2103 c-7 -2 -13 -15 -13 -29 0 -17 7 -25 24 -30 30 -7 46 1 46
25 0 31 -26 47 -57 34z"/>
</g>
</svg>
